<svg width="72" height="93" viewBox="0 0 72 93" fill="none" xmlns="http://www.w3.org/2000/svg">
<path d="M65.0066 40.5C61.4066 45.7 10.0066 46 6.00659 40.5C-5.49341 56 6.00659 82.5 9.0066 88.5C20.0066 93 57.5066 90.9 61.5066 88.5C69.5066 77.5 72.6066 51.7 65.0066 40.5Z" fill="#7A1616" stroke="black"/>
<path d="M64.5066 40.5L6.00659 41C10.5066 34 18.5066 30.5 25.0066 26C29.8957 22.6152 30.0066 8.5 30.0066 2.5H40.5066C41.5066 4.5 40.0066 22 47.0066 26.5C53.6343 30.7607 61.6733 37.1667 64.5066 40.5Z" fill="#C59E9E" stroke="black"/>
<path d="M7.50659 40.6994C12.8157 34.4335 58.8597 34.4335 63.4931 40.6994C64.4584 45.3988 13.2983 47.383 7.50659 40.6994Z" fill="#C72424" stroke="black" stroke-width="2"/>
<path d="M35.6965 2H30.3788C28.8594 2 28.4795 3.80162 30.3788 3.80162C30.3788 10.2874 28.4795 21.4575 26.2004 24.3401C24.3012 28.664 13.5892 29.7449 5.68846 41.2753C0.750484 48.4818 -1.52861 68.2996 8.7273 87.0364C10.5024 90.2794 25.8203 91 35.6965 91" stroke="black" stroke-width="3"/>
<path d="M35.3167 2H40.6344C42.1538 2 42.5337 3.80162 40.6344 3.80162C40.6344 10.2874 42.5337 21.4575 44.8128 24.3401C46.712 28.664 57.4239 29.7449 65.3247 41.2753C70.2627 48.4818 72.5418 68.2996 62.2859 87.0364C60.5108 90.2794 45.1928 91 35.3167 91" stroke="black" stroke-width="3"/>
</svg>
